<?xml version="1.0" encoding="UTF-8" standalone="no"?>
<!-- Created with Inkscape (http://www.inkscape.org/) -->

<svg
   width="210mm"
   height="297mm"
   viewBox="0 0 210 297"
   version="1.1"
   id="svg5"
   inkscape:version="1.2.2 (732a01da63, 2022-12-09)"
   sodipodi:docname="jitter_noise.svg"
   xml:space="preserve"
   xmlns:inkscape="http://www.inkscape.org/namespaces/inkscape"
   xmlns:sodipodi="http://sodipodi.sourceforge.net/DTD/sodipodi-0.dtd"
   xmlns:xlink="http://www.w3.org/1999/xlink"
   xmlns="http://www.w3.org/2000/svg"
   xmlns:svg="http://www.w3.org/2000/svg"><sodipodi:namedview
     id="namedview7"
     pagecolor="#ffffff"
     bordercolor="#000000"
     borderopacity="0.25"
     inkscape:showpageshadow="2"
     inkscape:pageopacity="0.0"
     inkscape:pagecheckerboard="0"
     inkscape:deskcolor="#d1d1d1"
     inkscape:document-units="mm"
     showgrid="false"
     inkscape:zoom="1.4324916"
     inkscape:cx="396.86098"
     inkscape:cy="585.34376"
     inkscape:window-width="1920"
     inkscape:window-height="991"
     inkscape:window-x="-9"
     inkscape:window-y="-9"
     inkscape:window-maximized="1"
     inkscape:current-layer="layer1" /><defs
     id="defs2"><marker
       style="overflow:visible"
       id="TriangleStart"
       refX="0"
       refY="0"
       orient="auto-start-reverse"
       inkscape:stockid="TriangleStart"
       markerWidth="5.3244081"
       markerHeight="6.155385"
       viewBox="0 0 5.3244081 6.1553851"
       inkscape:isstock="true"
       inkscape:collect="always"
       preserveAspectRatio="xMidYMid"><path
         transform="scale(0.5)"
         style="fill:context-stroke;fill-rule:evenodd;stroke:context-stroke;stroke-width:1pt"
         d="M 5.77,0 -2.88,5 V -5 Z"
         id="path135" /></marker><marker
       style="overflow:visible"
       id="Stop"
       refX="0"
       refY="0"
       orient="auto"
       inkscape:stockid="Stop"
       markerWidth="4"
       markerHeight="32"
       viewBox="0 0 1 8"
       inkscape:isstock="true"
       inkscape:collect="always"
       preserveAspectRatio="xMidYMid"><path
         style="fill:none;stroke:context-stroke;stroke-width:1"
         d="M 0,4 V -4"
         id="path171" /></marker><marker
       style="overflow:visible"
       id="TriangleStart-2"
       refX="0"
       refY="0"
       orient="auto-start-reverse"
       inkscape:stockid="TriangleStart"
       markerWidth="5.3244081"
       markerHeight="6.155385"
       viewBox="0 0 5.3244081 6.1553851"
       inkscape:isstock="true"
       inkscape:collect="always"
       preserveAspectRatio="xMidYMid"><path
         transform="scale(0.5)"
         style="fill:context-stroke;fill-rule:evenodd;stroke:context-stroke;stroke-width:1pt"
         d="M 5.77,0 -2.88,5 V -5 Z"
         id="path135-7" /></marker><path
       id="MJSZ2-2211"
       stroke-width="10"
       d="M60 948Q63 950 665 950H1267L1325 815Q1384 677 1388 669H1348L1341 683Q1320 724 1285 761Q1235 809 1174 838T1033 881T882 898T699 902H574H543H251L259 891Q722 258 724 252Q725 250 724 246Q721 243 460 -56L196 -356Q196 -357 407 -357Q459 -357 548 -357T676 -358Q812 -358 896 -353T1063 -332T1204 -283T1307 -196Q1328 -170 1348 -124H1388Q1388 -125 1381 -145T1356 -210T1325 -294L1267 -449L666 -450Q64 -450 61 -448Q55 -446 55 -439Q55 -437 57 -433L590 177Q590 178 557 222T452 366T322 544L56 909L55 924Q55 945 60 948Z" /><path
       id="MJMATHI-69"
       stroke-width="10"
       d="M184 600Q184 624 203 642T247 661Q265 661 277 649T290 619Q290 596 270 577T226 557Q211 557 198 567T184 600ZM21 287Q21 295 30 318T54 369T98 420T158 442Q197 442 223 419T250 357Q250 340 236 301T196 196T154 83Q149 61 149 51Q149 26 166 26Q175 26 185 29T208 43T235 78T260 137Q263 149 265 151T282 153Q302 153 302 143Q302 135 293 112T268 61T223 11T161 -11Q129 -11 102 10T74 74Q74 91 79 106T122 220Q160 321 166 341T173 380Q173 404 156 404H154Q124 404 99 371T61 287Q60 286 59 284T58 281T56 279T53 278T49 278T41 278H27Q21 284 21 287Z" /><path
       id="MJMAIN-3D"
       stroke-width="10"
       d="M56 347Q56 360 70 367H707Q722 359 722 347Q722 336 708 328L390 327H72Q56 332 56 347ZM56 153Q56 168 72 173H708Q722 163 722 153Q722 140 707 133H70Q56 140 56 153Z" /><path
       id="MJMAIN-30"
       stroke-width="10"
       d="M96 585Q152 666 249 666Q297 666 345 640T423 548Q460 465 460 320Q460 165 417 83Q397 41 362 16T301 -15T250 -22Q224 -22 198 -16T137 16T82 83Q39 165 39 320Q39 494 96 585ZM321 597Q291 629 250 629Q208 629 178 597Q153 571 145 525T137 333Q137 175 145 125T181 46Q209 16 250 16Q290 16 318 46Q347 76 354 130T362 333Q362 478 354 524T321 597Z" /><path
       id="MJMATHI-6E"
       stroke-width="10"
       d="M21 287Q22 293 24 303T36 341T56 388T89 425T135 442Q171 442 195 424T225 390T231 369Q231 367 232 367L243 378Q304 442 382 442Q436 442 469 415T503 336T465 179T427 52Q427 26 444 26Q450 26 453 27Q482 32 505 65T540 145Q542 153 560 153Q580 153 580 145Q580 144 576 130Q568 101 554 73T508 17T439 -10Q392 -10 371 17T350 73Q350 92 386 193T423 345Q423 404 379 404H374Q288 404 229 303L222 291L189 157Q156 26 151 16Q138 -11 108 -11Q95 -11 87 -5T76 7T74 17Q74 30 112 180T152 343Q153 348 153 366Q153 405 129 405Q91 405 66 305Q60 285 60 284Q58 278 41 278H27Q21 284 21 287Z" /><path
       id="MJMAIN-28"
       stroke-width="10"
       d="M94 250Q94 319 104 381T127 488T164 576T202 643T244 695T277 729T302 750H315H319Q333 750 333 741Q333 738 316 720T275 667T226 581T184 443T167 250T184 58T225 -81T274 -167T316 -220T333 -241Q333 -250 318 -250H315H302L274 -226Q180 -141 137 -14T94 250Z" /><path
       id="MJMAIN-2B"
       stroke-width="10"
       d="M56 237T56 250T70 270H369V420L370 570Q380 583 389 583Q402 583 409 568V270H707Q722 262 722 250T707 230H409V-68Q401 -82 391 -82H389H387Q375 -82 369 -68V230H70Q56 237 56 250Z" /><path
       id="MJMAIN-31"
       stroke-width="10"
       d="M213 578L200 573Q186 568 160 563T102 556H83V602H102Q149 604 189 617T245 641T273 663Q275 666 285 666Q294 666 302 660V361L303 61Q310 54 315 52T339 48T401 46H427V0H416Q395 3 257 3Q121 3 100 0H88V46H114Q136 46 152 46T177 47T193 50T201 52T207 57T213 61V578Z" /><path
       id="MJMAIN-29"
       stroke-width="10"
       d="M60 749L64 750Q69 750 74 750H86L114 726Q208 641 251 514T294 250Q294 182 284 119T261 12T224 -76T186 -143T145 -194T113 -227T90 -246Q87 -249 86 -250H74Q66 -250 63 -250T58 -247T55 -238Q56 -237 66 -225Q221 -64 221 250T66 725Q56 737 55 738Q55 746 60 749Z" /><path
       id="MJMAIN-32"
       stroke-width="10"
       d="M109 429Q82 429 66 447T50 491Q50 562 103 614T235 666Q326 666 387 610T449 465Q449 422 429 383T381 315T301 241Q265 210 201 149L142 93L218 92Q375 92 385 97Q392 99 409 186V189H449V186Q448 183 436 95T421 3V0H50V19V31Q50 38 56 46T86 81Q115 113 136 137Q145 147 170 174T204 211T233 244T261 278T284 308T305 340T320 369T333 401T340 431T343 464Q343 527 309 573T212 619Q179 619 154 602T119 569T109 550Q109 549 114 549Q132 549 151 535T170 489Q170 464 154 447T109 429Z" /><path
       id="MJMAIN-394"
       stroke-width="10"
       d="M51 0Q46 4 46 7Q46 9 215 357T388 709Q391 716 416 716Q439 716 444 709Q447 705 616 357T786 7Q786 4 781 0H51ZM507 344L384 596L137 92L383 91H630Q630 93 507 344Z" /><path
       id="MJMATHI-74"
       stroke-width="10"
       d="M26 385Q19 392 19 395Q19 399 22 411T27 425Q29 430 36 430T87 431H140L159 511Q162 522 166 540T173 566T179 586T187 603T197 615T211 624T229 626Q247 625 254 615T261 596Q261 589 252 549T232 470L222 433Q222 431 272 431H323Q330 424 330 420Q330 398 317 385H210L174 240Q135 80 135 68Q135 26 162 26Q197 26 230 60T283 144Q285 150 288 151T303 153H307Q322 153 322 145Q322 142 319 133Q314 117 301 95T267 48T216 6T155 -11Q125 -11 98 4T59 56Q57 64 57 83V101L92 241Q127 382 128 383Q128 385 77 385H26Z" /><path
       id="MJMATHI-6A"
       stroke-width="10"
       d="M297 596Q297 627 318 644T361 661Q378 661 389 651T403 623Q403 595 384 576T340 557Q322 557 310 567T297 596ZM288 376Q288 405 262 405Q240 405 220 393T185 362T161 325T144 293L137 279Q135 278 121 278H107Q101 284 101 286T105 299Q126 348 164 391T252 441Q253 441 260 441T272 442Q296 441 316 432Q341 418 354 401T367 348V332L318 133Q267 -67 264 -75Q246 -125 194 -164T75 -204Q25 -204 7 -183T-12 -137Q-12 -110 7 -91T53 -71Q70 -71 82 -81T95 -112Q95 -148 63 -167Q69 -168 77 -168Q111 -168 139 -140T182 -74L193 -32Q204 11 219 72T251 197T278 308T289 365Q289 372 288 376Z" /><path
       id="MJSZ2-2211-3"
       stroke-width="10"
       d="M60 948Q63 950 665 950H1267L1325 815Q1384 677 1388 669H1348L1341 683Q1320 724 1285 761Q1235 809 1174 838T1033 881T882 898T699 902H574H543H251L259 891Q722 258 724 252Q725 250 724 246Q721 243 460 -56L196 -356Q196 -357 407 -357Q459 -357 548 -357T676 -358Q812 -358 896 -353T1063 -332T1204 -283T1307 -196Q1328 -170 1348 -124H1388Q1388 -125 1381 -145T1356 -210T1325 -294L1267 -449L666 -450Q64 -450 61 -448Q55 -446 55 -439Q55 -437 57 -433L590 177Q590 178 557 222T452 366T322 544L56 909L55 924Q55 945 60 948Z" /><path
       id="MJMATHI-69-3"
       stroke-width="10"
       d="M184 600Q184 624 203 642T247 661Q265 661 277 649T290 619Q290 596 270 577T226 557Q211 557 198 567T184 600ZM21 287Q21 295 30 318T54 369T98 420T158 442Q197 442 223 419T250 357Q250 340 236 301T196 196T154 83Q149 61 149 51Q149 26 166 26Q175 26 185 29T208 43T235 78T260 137Q263 149 265 151T282 153Q302 153 302 143Q302 135 293 112T268 61T223 11T161 -11Q129 -11 102 10T74 74Q74 91 79 106T122 220Q160 321 166 341T173 380Q173 404 156 404H154Q124 404 99 371T61 287Q60 286 59 284T58 281T56 279T53 278T49 278T41 278H27Q21 284 21 287Z" /><path
       id="MJMAIN-3D-0"
       stroke-width="10"
       d="M56 347Q56 360 70 367H707Q722 359 722 347Q722 336 708 328L390 327H72Q56 332 56 347ZM56 153Q56 168 72 173H708Q722 163 722 153Q722 140 707 133H70Q56 140 56 153Z" /><path
       id="MJMAIN-30-7"
       stroke-width="10"
       d="M96 585Q152 666 249 666Q297 666 345 640T423 548Q460 465 460 320Q460 165 417 83Q397 41 362 16T301 -15T250 -22Q224 -22 198 -16T137 16T82 83Q39 165 39 320Q39 494 96 585ZM321 597Q291 629 250 629Q208 629 178 597Q153 571 145 525T137 333Q137 175 145 125T181 46Q209 16 250 16Q290 16 318 46Q347 76 354 130T362 333Q362 478 354 524T321 597Z" /><path
       id="MJMATHI-6E-9"
       stroke-width="10"
       d="M21 287Q22 293 24 303T36 341T56 388T89 425T135 442Q171 442 195 424T225 390T231 369Q231 367 232 367L243 378Q304 442 382 442Q436 442 469 415T503 336T465 179T427 52Q427 26 444 26Q450 26 453 27Q482 32 505 65T540 145Q542 153 560 153Q580 153 580 145Q580 144 576 130Q568 101 554 73T508 17T439 -10Q392 -10 371 17T350 73Q350 92 386 193T423 345Q423 404 379 404H374Q288 404 229 303L222 291L189 157Q156 26 151 16Q138 -11 108 -11Q95 -11 87 -5T76 7T74 17Q74 30 112 180T152 343Q153 348 153 366Q153 405 129 405Q91 405 66 305Q60 285 60 284Q58 278 41 278H27Q21 284 21 287Z" /><path
       id="MJMAIN-28-7"
       stroke-width="10"
       d="M94 250Q94 319 104 381T127 488T164 576T202 643T244 695T277 729T302 750H315H319Q333 750 333 741Q333 738 316 720T275 667T226 581T184 443T167 250T184 58T225 -81T274 -167T316 -220T333 -241Q333 -250 318 -250H315H302L274 -226Q180 -141 137 -14T94 250Z" /><path
       id="MJMAIN-2B-1"
       stroke-width="10"
       d="M56 237T56 250T70 270H369V420L370 570Q380 583 389 583Q402 583 409 568V270H707Q722 262 722 250T707 230H409V-68Q401 -82 391 -82H389H387Q375 -82 369 -68V230H70Q56 237 56 250Z" /><path
       id="MJMAIN-31-0"
       stroke-width="10"
       d="M213 578L200 573Q186 568 160 563T102 556H83V602H102Q149 604 189 617T245 641T273 663Q275 666 285 666Q294 666 302 660V361L303 61Q310 54 315 52T339 48T401 46H427V0H416Q395 3 257 3Q121 3 100 0H88V46H114Q136 46 152 46T177 47T193 50T201 52T207 57T213 61V578Z" /><path
       id="MJMAIN-29-3"
       stroke-width="10"
       d="M60 749L64 750Q69 750 74 750H86L114 726Q208 641 251 514T294 250Q294 182 284 119T261 12T224 -76T186 -143T145 -194T113 -227T90 -246Q87 -249 86 -250H74Q66 -250 63 -250T58 -247T55 -238Q56 -237 66 -225Q221 -64 221 250T66 725Q56 737 55 738Q55 746 60 749Z" /><path
       id="MJMAIN-32-6"
       stroke-width="10"
       d="M109 429Q82 429 66 447T50 491Q50 562 103 614T235 666Q326 666 387 610T449 465Q449 422 429 383T381 315T301 241Q265 210 201 149L142 93L218 92Q375 92 385 97Q392 99 409 186V189H449V186Q448 183 436 95T421 3V0H50V19V31Q50 38 56 46T86 81Q115 113 136 137Q145 147 170 174T204 211T233 244T261 278T284 308T305 340T320 369T333 401T340 431T343 464Q343 527 309 573T212 619Q179 619 154 602T119 569T109 550Q109 549 114 549Q132 549 151 535T170 489Q170 464 154 447T109 429Z" /><path
       id="MJMAIN-394-1"
       stroke-width="10"
       d="M51 0Q46 4 46 7Q46 9 215 357T388 709Q391 716 416 716Q439 716 444 709Q447 705 616 357T786 7Q786 4 781 0H51ZM507 344L384 596L137 92L383 91H630Q630 93 507 344Z" /><path
       id="MJMATHI-74-8"
       stroke-width="10"
       d="M26 385Q19 392 19 395Q19 399 22 411T27 425Q29 430 36 430T87 431H140L159 511Q162 522 166 540T173 566T179 586T187 603T197 615T211 624T229 626Q247 625 254 615T261 596Q261 589 252 549T232 470L222 433Q222 431 272 431H323Q330 424 330 420Q330 398 317 385H210L174 240Q135 80 135 68Q135 26 162 26Q197 26 230 60T283 144Q285 150 288 151T303 153H307Q322 153 322 145Q322 142 319 133Q314 117 301 95T267 48T216 6T155 -11Q125 -11 98 4T59 56Q57 64 57 83V101L92 241Q127 382 128 383Q128 385 77 385H26Z" /><path
       id="MJMATHI-6A-4"
       stroke-width="10"
       d="M297 596Q297 627 318 644T361 661Q378 661 389 651T403 623Q403 595 384 576T340 557Q322 557 310 567T297 596ZM288 376Q288 405 262 405Q240 405 220 393T185 362T161 325T144 293L137 279Q135 278 121 278H107Q101 284 101 286T105 299Q126 348 164 391T252 441Q253 441 260 441T272 442Q296 441 316 432Q341 418 354 401T367 348V332L318 133Q267 -67 264 -75Q246 -125 194 -164T75 -204Q25 -204 7 -183T-12 -137Q-12 -110 7 -91T53 -71Q70 -71 82 -81T95 -112Q95 -148 63 -167Q69 -168 77 -168Q111 -168 139 -140T182 -74L193 -32Q204 11 219 72T251 197T278 308T289 365Q289 372 288 376Z" /><path
       id="MJMATHI-3F5"
       stroke-width="10"
       d="M227 -11Q149 -11 95 41T40 174Q40 262 87 322Q121 367 173 396T287 430Q289 431 329 431H367Q382 426 382 411Q382 385 341 385H325H312Q191 385 154 277L150 265H327Q340 256 340 246Q340 228 320 219H138V217Q128 187 128 143Q128 77 160 52T231 26Q258 26 284 36T326 57T343 68Q350 68 354 58T358 39Q358 36 357 35Q354 31 337 21T289 0T227 -11Z" /><path
       id="MJMATHI-45"
       stroke-width="10"
       d="M492 213Q472 213 472 226Q472 230 477 250T482 285Q482 316 461 323T364 330H312Q311 328 277 192T243 52Q243 48 254 48T334 46Q428 46 458 48T518 61Q567 77 599 117T670 248Q680 270 683 272Q690 274 698 274Q718 274 718 261Q613 7 608 2Q605 0 322 0H133Q31 0 31 11Q31 13 34 25Q38 41 42 43T65 46Q92 46 125 49Q139 52 144 61Q146 66 215 342T285 622Q285 629 281 629Q273 632 228 634H197Q191 640 191 642T193 659Q197 676 203 680H757Q764 676 764 669Q764 664 751 557T737 447Q735 440 717 440H705Q698 445 698 453L701 476Q704 500 704 528Q704 558 697 578T678 609T643 625T596 632T532 634H485Q397 633 392 631Q388 629 386 622Q385 619 355 499T324 377Q347 376 372 376H398Q464 376 489 391T534 472Q538 488 540 490T557 493Q562 493 565 493T570 492T572 491T574 487T577 483L544 351Q511 218 508 216Q505 213 492 213Z" /><path
       id="MJMATHI-73"
       stroke-width="10"
       d="M131 289Q131 321 147 354T203 415T300 442Q362 442 390 415T419 355Q419 323 402 308T364 292Q351 292 340 300T328 326Q328 342 337 354T354 372T367 378Q368 378 368 379Q368 382 361 388T336 399T297 405Q249 405 227 379T204 326Q204 301 223 291T278 274T330 259Q396 230 396 163Q396 135 385 107T352 51T289 7T195 -10Q118 -10 86 19T53 87Q53 126 74 143T118 160Q133 160 146 151T160 120Q160 94 142 76T111 58Q109 57 108 57T107 55Q108 52 115 47T146 34T201 27Q237 27 263 38T301 66T318 97T323 122Q323 150 302 164T254 181T195 196T148 231Q131 256 131 289Z" /></defs><g
     inkscape:groupmode="layer"
     id="layer2"
     inkscape:label="Camada 2"><ellipse
       style="fill:#2f4ff0;stroke-width:0.203784;fill-opacity:0.81556201"
       id="path353-8"
       cx="-47.292789"
       cy="-170.65318"
       rx="5.2241468"
       ry="1.8284516"
       transform="rotate(160)" /><ellipse
       style="fill:#2f4ff0;fill-opacity:0.815562;stroke-width:0.203784"
       id="path353-8-2"
       cx="102.97108"
       cy="179.89926"
       rx="5.2241468"
       ry="1.8284516" /></g><g
     inkscape:label="Camada 1"
     inkscape:groupmode="layer"
     id="layer1"><path
       style="fill:none;stroke-width:0.96500005;stroke:#000000;stroke-opacity:1;stroke-dasharray:none"
       d="m 34.47937,156.98562 c -0.540285,-2.24485 0.364971,-4.39348 1.044829,-6.53019 2.862281,-10.01798 -0.309899,0.50204 1.828453,-5.48535 0.213193,-0.59694 0.238937,-1.2615 0.522415,-1.82845 0.1652,-0.3304 0.56198,-0.4881 0.783621,-0.78362 0.304618,-0.40616 0.48853,-0.89291 0.783622,-1.30604 0.11788,-0.16503 2.842363,-2.69801 3.13449,-2.87328 0.641882,-0.38513 1.145362,-0.18087 1.82845,-0.52242 0.220269,-0.11013 0.31124,-0.39571 0.522415,-0.52241 0.34377,-0.20626 1.404496,-0.67763 1.828451,-0.78362 0.719296,-0.17983 2.247222,-0.0525 2.873282,-0.26121 0.819727,-0.27324 1.500513,-0.13973 2.350865,-0.26121 0.751433,-0.10734 1.360715,-0.40092 2.089658,-0.52241 1.077336,-0.17956 2.095426,0.14576 3.13449,0.26121 0.432681,0.0481 0.881057,-0.0944 1.306036,0 0.380114,0.0845 0.671867,0.41052 1.044829,0.52241 0.507286,0.15219 1.059961,0.10902 1.567244,0.26121 1.944274,0.58328 3.556754,2.07342 5.224147,3.13449 0.920411,0.58571 1.91552,1.04483 2.873282,1.56724 2.17133,1.18436 -0.240453,-0.20066 2.87328,1.04483 0.291478,0.11659 0.522415,0.34828 0.783622,0.52241 0.522414,0.26121 1.018334,0.58402 1.567243,0.78363 0.616749,0.22427 1.294935,0.0956 1.828454,0.52241 1.485445,1.18836 1.50564,1.14463 3.395694,2.08966 0.890812,0.44541 1.721263,1.12184 2.612075,1.56725 1.631244,0.81562 3.242458,1.51616 4.962938,2.08965 0.905364,0.30179 2.27095,-0.17485 3.134489,-0.2612 0.433184,-0.0433 0.896901,0.14877 1.306037,0 0.590063,-0.21457 0.990145,-0.79751 1.567243,-1.04483 4.676884,-2.00438 0.0305,0.63776 3.395697,-1.04483 1.241348,-0.62068 2.410627,-1.46652 3.656899,-2.08966 1.12578,-0.56289 2.75012,-1.21685 3.91811,-1.56725 0.25019,-0.0751 0.52749,0.0512 0.78363,0 0.18913,-0.0378 2.25215,-0.97079 2.35086,-1.04483 0.15576,-0.11681 0.12354,-0.38474 0.26121,-0.52241 0.13767,-0.13767 0.38474,-0.12354 0.52242,-0.26121 0.53273,-0.53274 1.374,-1.57792 1.56724,-2.35086 0.0422,-0.16894 -0.0779,-0.36666 0,-0.52242 0.27034,-0.54068 2.91375,-3.02085 3.39569,-3.39569 1.36338,-1.06041 2.0118,-0.63243 3.13449,-1.30604 1.5013,-0.90078 -1.50311,-0.27403 1.04483,-0.78362 0.25614,-0.0512 0.53582,0.0826 0.78362,0 0.94695,-0.31565 0.1859,-0.12394 0.78362,-0.52242 0.75704,-0.50469 1.79331,-0.7719 2.61208,-1.04483 1.54293,-0.51431 3.17224,-0.74986 4.70173,-1.30603 0.36594,-0.13307 0.67043,-0.41545 1.04483,-0.52242 0.25116,-0.0718 0.52597,0.0429 0.78362,0 0.86662,-0.14443 1.8005,-0.51309 2.61208,-0.78362 0.9937,-0.33124 3.8352,0 4.96294,0 1.54284,0 3.44109,-0.30437 4.96294,0 3.18864,0.63773 6.05477,2.36654 9.14225,3.39569 0.61914,0.20638 1.48354,0.61045 2.08966,0.78363 1.70985,0.48853 -0.15028,-0.59756 1.56724,0.2612 0.2808,0.1404 0.48581,0.42315 0.78363,0.52242 1.42145,0.47382 2.99603,0.63212 4.44052,1.04483 0.73572,0.2102 1.44791,0.72395 2.08966,1.04483 0.23363,0.11681 0.53582,-0.0826 0.78362,0 0.11682,0.0389 0.14175,0.23134 0.26121,0.26121 0.50682,0.1267 1.05497,0.10245 1.56725,0 1.01055,-0.20212 0.22511,-0.18903 0.52241,-0.78363 0.0779,-0.15575 0.36666,0.0779 0.52241,0 1.53656,-0.76828 3.285,-2.08966 5.22415,-2.08966"
       id="path126" /><path
       style="fill:none;stroke:#000000;stroke-width:0.365001;stroke-dasharray:none;stroke-opacity:1;marker-mid:url(#Stop);marker-end:url(#TriangleStart)"
       d="M 34.218163,179.97187 H 169.26236"
       id="path1893" /><text
       xml:space="preserve"
       style="font-size:8.46667px;fill:#000000;stroke:none;stroke-width:0.365001;stroke-dasharray:none;stroke-opacity:1;fill-opacity:1;-inkscape-font-specification:'Arial, Normal';font-family:Arial;font-weight:normal;font-style:normal;font-stretch:normal;font-variant:normal;font-variant-ligatures:normal;font-variant-caps:normal;font-variant-numeric:normal;font-variant-east-asian:normal"
       x="172.65807"
       y="182.84514"
       id="text3007"><tspan
         sodipodi:role="line"
         id="tspan3005"
         style="stroke-width:0.365;stroke:none;fill:#000000;fill-opacity:1;-inkscape-font-specification:'Arial, Normal';font-family:Arial;font-weight:normal;font-style:normal;font-stretch:normal;font-variant:normal;font-size:8.46666667px;font-variant-ligatures:normal;font-variant-caps:normal;font-variant-numeric:normal;font-variant-east-asian:normal"
         x="172.65807"
         y="182.84514">t</tspan></text><text
       xml:space="preserve"
       style="font-style:normal;font-variant:normal;font-weight:normal;font-stretch:normal;font-size:8.46667px;font-family:Arial;-inkscape-font-specification:'Arial, Normal';font-variant-ligatures:normal;font-variant-caps:normal;font-variant-numeric:normal;font-variant-east-asian:normal;fill:#000000;fill-opacity:1;stroke:none;stroke-width:0.365001;stroke-dasharray:none;stroke-opacity:1"
       x="92.608795"
       y="123.72794"
       id="text3007-2"><tspan
         sodipodi:role="line"
         id="tspan3005-3"
         style="font-style:normal;font-variant:normal;font-weight:normal;font-stretch:normal;font-size:8.46667px;font-family:Arial;-inkscape-font-specification:'Arial, Normal';font-variant-ligatures:normal;font-variant-caps:normal;font-variant-numeric:normal;font-variant-east-asian:normal;fill:#000000;fill-opacity:1;stroke:none;stroke-width:0.365"
         x="92.608795"
         y="123.72794">sample</tspan></text><text
       xml:space="preserve"
       style="font-style:normal;font-variant:normal;font-weight:normal;font-stretch:normal;font-size:8.46667px;font-family:Arial;-inkscape-font-specification:'Arial, Normal';font-variant-ligatures:normal;font-variant-caps:normal;font-variant-numeric:normal;font-variant-east-asian:normal;fill:#000000;fill-opacity:1;stroke:none;stroke-width:0.365001;stroke-dasharray:none;stroke-opacity:1"
       x="3.9453993"
       y="166.20395"
       id="text3007-2-8"><tspan
         sodipodi:role="line"
         id="tspan3005-3-2"
         style="font-style:normal;font-variant:normal;font-weight:normal;font-stretch:normal;font-size:8.46667px;font-family:Arial;-inkscape-font-specification:'Arial, Normal';font-variant-ligatures:normal;font-variant-caps:normal;font-variant-numeric:normal;font-variant-east-asian:normal;fill:#000000;fill-opacity:1;stroke:none;stroke-width:0.365"
         x="3.9453993"
         y="166.20395">sample </tspan><tspan
         sodipodi:role="line"
         style="font-style:normal;font-variant:normal;font-weight:normal;font-stretch:normal;font-size:8.46667px;font-family:Arial;-inkscape-font-specification:'Arial, Normal';font-variant-ligatures:normal;font-variant-caps:normal;font-variant-numeric:normal;font-variant-east-asian:normal;fill:#000000;fill-opacity:1;stroke:none;stroke-width:0.365"
         x="3.9453993"
         y="176.78729"
         id="tspan6808">uncertainty</tspan></text><text
       xml:space="preserve"
       style="font-style:normal;font-variant:normal;font-weight:normal;font-stretch:normal;font-size:8.46667px;font-family:Arial;-inkscape-font-specification:'Arial, Normal';font-variant-ligatures:normal;font-variant-caps:normal;font-variant-numeric:normal;font-variant-east-asian:normal;fill:#000000;fill-opacity:1;stroke:none;stroke-width:0.365001;stroke-dasharray:none;stroke-opacity:1"
       x="132.49765"
       y="167.68155"
       id="text3007-2-2"><tspan
         sodipodi:role="line"
         id="tspan3005-3-3"
         style="font-style:normal;font-variant:normal;font-weight:normal;font-stretch:normal;font-size:8.46667px;font-family:Arial;-inkscape-font-specification:'Arial, Normal';font-variant-ligatures:normal;font-variant-caps:normal;font-variant-numeric:normal;font-variant-east-asian:normal;fill:#000000;fill-opacity:1;stroke:none;stroke-width:0.365"
         x="132.49765"
         y="167.68155">time uncertainty</tspan></text><text
       xml:space="preserve"
       style="font-style:normal;font-variant:normal;font-weight:normal;font-stretch:normal;font-size:8.46667px;font-family:Arial;-inkscape-font-specification:'Arial, Normal';font-variant-ligatures:normal;font-variant-caps:normal;font-variant-numeric:normal;font-variant-east-asian:normal;fill:#000000;fill-opacity:1;stroke:none;stroke-width:0.365001;stroke-dasharray:none;stroke-opacity:1"
       x="29.256184"
       y="120.21861"
       id="text3007-5"><tspan
         sodipodi:role="line"
         id="tspan3005-0"
         style="font-style:normal;font-variant:normal;font-weight:normal;font-stretch:normal;font-size:8.46667px;font-family:Arial;-inkscape-font-specification:'Arial, Normal';font-variant-ligatures:normal;font-variant-caps:normal;font-variant-numeric:normal;font-variant-east-asian:normal;fill:#000000;fill-opacity:1;stroke:none;stroke-width:0.365"
         x="29.256184"
         y="120.21861">s(t)</tspan></text><circle
       style="fill:#ff0000;fill-opacity:1;stroke:none;stroke-width:0.365001;stroke-dasharray:none;stroke-opacity:1"
       id="path3061"
       cx="102.9157"
       cy="144.18646"
       r="1.8284514" /><path
       style="fill:#ff0000;fill-opacity:1;stroke:#000000;stroke-width:0.365001;stroke-dasharray:1.095, 1.095;stroke-dashoffset:0;stroke-opacity:1"
       d="m 102.9157,145.76721 v 35.263"
       id="path3117" /><path
       style="fill:#ff0000;fill-opacity:1;stroke:#000000;stroke-width:0.426;stroke-dasharray:1.27799762,1.27799762;stroke-dashoffset:0;stroke-opacity:1"
       d="M 107.48683,141.70499 H 34.21816"
       id="path3117-88" /><path
       style="fill:#ff0000;fill-opacity:1;stroke:#000000;stroke-width:0.392;stroke-dasharray:1.17599518,1.17599518;stroke-dashoffset:0;stroke-opacity:1"
       d="M 98.409875,146.14552 H 34.414066"
       id="path3117-88-0" /><path
       style="fill:#ff0000;fill-opacity:1;stroke:#000000;stroke-width:0.359705;stroke-dasharray:1.07911, 1.07911;stroke-dashoffset:0;stroke-opacity:1"
       d="m 97.984143,145.82932 v 34.24714"
       id="path3117-5" /><path
       style="fill:#ff0000;fill-opacity:1;stroke:#000000;stroke-width:0.376297;stroke-dasharray:1.12889, 1.12889;stroke-dashoffset:0;stroke-opacity:1"
       d="m 107.68097,142.78175 v 37.47942"
       id="path3117-8" /><text
       xml:space="preserve"
       style="font-style:normal;font-variant:normal;font-weight:normal;font-stretch:normal;font-size:8.46667px;font-family:Arial;-inkscape-font-specification:'Arial, Normal';font-variant-ligatures:normal;font-variant-caps:normal;font-variant-numeric:normal;font-variant-east-asian:normal;fill:#000000;fill-opacity:1;stroke:none;stroke-width:0.365001;stroke-dasharray:none;stroke-opacity:1"
       x="100.78191"
       y="187.73737"
       id="text3007-1"><tspan
         sodipodi:role="line"
         id="tspan3005-2"
         style="font-style:normal;font-variant:normal;font-weight:normal;font-stretch:normal;font-size:8.46667px;font-family:Arial;-inkscape-font-specification:'Arial, Normal';font-variant-ligatures:normal;font-variant-caps:normal;font-variant-numeric:normal;font-variant-east-asian:normal;fill:#000000;fill-opacity:1;stroke:none;stroke-width:0.365"
         x="100.78191"
         y="187.73737">n</tspan></text><path
       style="fill:none;fill-opacity:1;stroke-width:0.365;stroke:#000000;stroke-opacity:1;stroke-dasharray:none;marker-end:url(#TriangleStart)"
       d="M 34.348766,179.97187 V 124.2041"
       id="path1222" /><path
       style="fill:#000000;fill-opacity:1;stroke:#000000;stroke-width:0.426;stroke-dasharray:none;stroke-dashoffset:0;stroke-opacity:1;marker-start:url(#TriangleStart);marker-end:url(#TriangleStart)"
       d="m 31.029851,141.29664 v 5.72575"
       id="path1383" /><path
       style="fill:#000000;fill-opacity:1;stroke:#000000;stroke-width:0.426;stroke-dasharray:none;stroke-dashoffset:0;stroke-opacity:1;marker-start:url(#TriangleStart-2);marker-end:url(#TriangleStart-2)"
       d="M 105.37221,174.91232 H 99.64646"
       id="path1383-9" /><g
       stroke="#000000"
       fill="#000000"
       stroke-width="0"
       transform="matrix(0.00654196,0,0,-0.00603754,106.66896,173.3084)"
       id="g3542"><use
         xlink:href="#MJMAIN-394"
         id="use3534" /><g
         transform="translate(838)"
         id="g3540"><use
           xlink:href="#MJMATHI-74"
           id="use3536" /><use
           transform="scale(0.70710678)"
           xlink:href="#MJMATHI-6A"
           x="517"
           y="-213"
           id="use3538" /></g></g><path
       style="fill:#000000;fill-opacity:1;stroke:#fb0000;stroke-width:0.626;stroke-dasharray:none;stroke-dashoffset:0;stroke-opacity:1;marker-end:url(#TriangleStart)"
       d="m 105.09515,125.41232 -1.47762,13.85261"
       id="path4026" /><path
       style="fill:#000000;fill-opacity:1;stroke:#000000;stroke-width:0.626;stroke-dasharray:none;stroke-dashoffset:0;stroke-opacity:1;marker-end:url(#TriangleStart)"
       d="m 118.39366,169.92537 11.26679,-2.21641"
       id="path5051" /><g
       stroke="#000000"
       fill="#000000"
       stroke-width="0"
       transform="matrix(0.00924356,0,0,-0.01099615,22.134961,145.85497)"
       id="g6296"><use
         xlink:href="#MJMATHI-3F5"
         id="use6292" /><use
         transform="scale(0.70710678)"
         xlink:href="#MJMATHI-73"
         x="581"
         y="-213"
         id="use6294" /></g><path
       style="fill:#000000;fill-opacity:1;stroke:#000000;stroke-width:0.625999;stroke-dasharray:none;stroke-dashoffset:0;stroke-opacity:1;marker-end:url(#TriangleStart)"
       d="m 25.488806,149.0541 -4.432836,8.68097"
       id="path6737" /></g></svg>
